<svg height="512" viewBox="0 0 60 60" width="512" xmlns="http://www.w3.org/2000/svg"><g id="Page-1" fill="none" fill-rule="evenodd"><g id="028---Black-Pudding" fill="rgb(0,0,0)" fill-rule="nonzero"><path id="Shape" d="m52.2.02c-.3976513-.07981083-.8041264.08846746-1.029.426-.7518228 1.13848141-1.3226011 2.38663718-1.692 3.7-.414-.22-.83-.437-1.264-.627-4.372084-1.91868607-9.327889-2.01909184-13.7740993-.27906649-4.4462104 1.74002534-8.0174659 5.17749808-9.9259007 9.55406649-3.415 7.8-11.34 11.68-12.894 12.379l.008.018c-6.07550521 2.3116022-10.43143934 7.7209308-11.39419124 14.1496459-.9627519 6.428715 1.61744124 12.8767846 6.74923293 16.8667699 5.13179171 3.9899852 12.01689571 4.9012158 18.00995831 2.3835842 3.806-1.534 23.259-10.26 32.492-31.376 1.9303589-4.3681381 2.0304827-9.3275097.278-13.77-.4428359-1.129228-.9976018-2.2112894-1.656-3.23 1.3204144-.64496372 2.5344442-1.48803999 3.6-2.5.2832906-.28281545.3706305-.70731848.222-1.079-1.3696745-3.31511784-4.2431803-5.77451162-7.73-6.616zm-50.2 41.98c0-8.836556 7.163444-16 16-16s16 7.163444 16 16-7.163444 16-16 16c-8.8322157-.0104696-15.98953038-7.1677843-16-16zm53.654-15.591c-5.767 13.191-15.66 21.372-22.932 25.915 3.866682-5.4911671 4.3496835-12.6798884 1.2523292-18.6389606-3.0973542-5.9590723-9.2583738-9.6944227-15.9743292-9.6850394-.167 0-.33.021-.5.025 3.8268129-2.6268527 6.8810902-6.2297674 8.846-10.435 3.5398691-8.09318072 12.9703193-11.7843691 21.0635-8.2445s11.7843691 12.9703193 8.2445 21.0635zm-.754-17.84c-1.0494746-1.28284002-2.2733484-2.41246614-3.636-3.356.247025-1.0679185.6485905-2.09406648 1.192-3.046 2.3120707.76463378 4.2300855 2.40890308 5.339 4.577-.8679278.75019349-1.843868 1.36542348-2.895 1.825z"/><path id="Shape" d="m19 29c-2.209139 0-4 1.790861-4 4s1.790861 4 4 4 4-1.790861 4-4-1.790861-4-4-4zm0 6c-1.1045695 0-2-.8954305-2-2s.8954305-2 2-2 2 .8954305 2 2-.8954305 2-2 2z"/><path id="Shape" d="m10 42c-2.209139 0-4 1.790861-4 4s1.790861 4 4 4 4-1.790861 4-4-1.790861-4-4-4zm0 6c-1.1045695 0-2-.8954305-2-2s.8954305-2 2-2 2 .8954305 2 2-.8954305 2-2 2z"/><path id="Shape" d="m25 46c-1.6568542 0-3 1.3431458-3 3s1.3431458 3 3 3 3-1.3431458 3-3-1.3431458-3-3-3zm0 4c-.5522847 0-1-.4477153-1-1s.4477153-1 1-1 1 .4477153 1 1-.4477153 1-1 1z"/><circle id="Oval" cx="9" cy="38" r="1"/><circle id="Oval" cx="27" cy="39" r="1"/><circle id="Oval" cx="18" cy="53" r="1"/><circle id="Oval" cx="18" cy="42" r="1"/></g></g></svg>