<?xml version="1.0" encoding="UTF-8" standalone="no"?>
<svg
   xmlns:dc="http://purl.org/dc/elements/1.1/"
   xmlns:cc="http://creativecommons.org/ns#"
   xmlns:rdf="http://www.w3.org/1999/02/22-rdf-syntax-ns#"
   xmlns:svg="http://www.w3.org/2000/svg"
   xmlns="http://www.w3.org/2000/svg"
   xmlns:sodipodi="http://sodipodi.sourceforge.net/DTD/sodipodi-0.dtd"
   xmlns:inkscape="http://www.inkscape.org/namespaces/inkscape"
   height="511pt"
   viewBox="-1 0 511 511.99865"
   width="511pt"
   version="1.1"
   id="svg4"
   sodipodi:docname="sausage.svg"
   inkscape:version="0.92.3 (2405546, 2018-03-11)">
  <metadata
     id="metadata10">
    <rdf:RDF>
      <cc:Work
         rdf:about="">
        <dc:format>image/svg+xml</dc:format>
        <dc:type
           rdf:resource="http://purl.org/dc/dcmitype/StillImage" />
      </cc:Work>
    </rdf:RDF>
  </metadata>
  <defs
     id="defs8" />
  <sodipodi:namedview
     pagecolor="#ffffff"
     bordercolor="#666666"
     borderopacity="1"
     objecttolerance="10"
     gridtolerance="10"
     guidetolerance="10"
     inkscape:pageopacity="0"
     inkscape:pageshadow="2"
     inkscape:window-width="1920"
     inkscape:window-height="1017"
     id="namedview6"
     showgrid="false"
     inkscape:zoom="0.6927593"
     inkscape:cx="297.62214"
     inkscape:cy="361.49704"
     inkscape:window-x="-8"
     inkscape:window-y="-8"
     inkscape:window-maximized="1"
     inkscape:current-layer="svg4" />
  <path
     d="m 470.86328,120.95312 c -5.22266,-8.14453 -17.84766,-0.043 -12.625,8.10157 28.91797,45.08203 41.64844,99.65625 35.85156,153.66406 -5.8789,54.73437 -30.66797,106.37109 -69.80078,145.39844 C 379.71875,472.57422 319.9375,497.00391 255.81641,497 c -0.50391,0 -1.00782,0 -1.50782,-0.004 -64.61328,-0.38663 -125.0664,-25.46475 -170.226559,-70.621 -25.785156,-25.78906 -32.421875,-66.96484 -9.382812,-96.83203 28.656251,-37.13672 78.191401,-27.23828 111.996091,-3.6211 26.50391,18.51563 52.57031,26.94532 77.46094,25.06641 2.25,-0.17187 4.47656,-0.44531 6.69141,-0.78516 l 9.89062,40.85938 c 2.24219,9.26562 16.86328,5.91016 14.57813,-3.53125 l -9.89844,-40.88672 c 10.77344,-3.64844 20.85937,-9.41797 29.92187,-17.17969 l 44.35157,42.5586 c 6.96875,6.68359 17.37109,-4.11719 10.38671,-10.82422 l -44.08203,-42.30078 c 8.65625,-9.82032 14.8125,-20.35938 18.46485,-31.58203 l 41.11718,9.95312 c 9.21875,2.23047 12.96875,-12.29297 3.53125,-14.57812 l -41.33984,-10.00782 c 3.125,-24.11718 -4.19141,-51.05468 -21.98047,-80.60547 -34.30469,-57.0039 -19.28515,-98.488276 4,-116.695308 12.44141,-9.726562 28.375,-14.140624 44.85547,-12.429687 18.35547,1.902344 36.27344,11.128906 51.82813,26.679687 1.85151,1.851509 11.24759,11.033428 19.06976,20.909858 6.30435,7.96 11.30124,16.94133 12.69586,18.51202 6.41797,7.23828 19.04688,-0.86719 12.625,-8.10157 -1.6031,-1.80867 -7.34935,-11.62915 -14.66689,-20.8619 -7.8384,-9.88994 -17.27984,-19.225451 -19.11827,-21.063876 -18.01171,-18.015625 -39.0664,-28.730469 -60.88281,-30.996094 -3.22265,-0.335938 -6.42578,-0.457031 -9.60156,-0.414062 -0.0898,-2.441407 -0.28516,-4.570313 -0.49219,-6.191407 -0.85547,-6.855469 -3.50781,-16.378906 -6.75,-24.261719 -3.43359,-8.34375 -8.42969,-17.835937 -16.58984,-17.1249995 -8.04688,0.6953125 -10.39453,9.4179685 -12.87891,18.6523435 -0.35156,1.304688 -0.8125,3.007813 -1.28906,4.601563 -2.55078,-2.203125 -5.65234,-5.15625 -7.85547,-7.253907 -10.88672,-10.367187 -18.07812,-17.214843 -25.32031,-12.90625 -7.26172,4.316407 -4.70313,13.792969 -0.82422,28.132813 0.76953,2.847656 1.85547,6.859375 2.55469,10.0625 -1.60157,-0.316406 -3.29297,-0.699219 -4.58985,-0.992187 -9.10547,-2.058594 -17.70703,-4.003907 -22.11718,2.625 -4.48047,6.742187 1.3789,15.324218 8.3789,23.597656 5.17969,6.121094 12.11719,13.070312 16.5,16.519531 1.82031,1.433594 3.65625,2.742187 5.48828,3.929687 -5.20312,9.585938 -8.51953,20.445308 -9.66015,32.105468 -2.44922,25.03906 5.08593,52.94141 21.78906,80.69531 22.55078,37.46875 30.94141,81.6875 -3.5625,114.82422 -33.41016,32.08203 -79.02344,23.48828 -114.08594,-1.00781 -25.33984,-17.69922 -51.48047,-26.01563 -75.58203,-24.03516 -9.71875,0.79688 -19.00391,3.28125 -27.539061,7.25782 -0.261719,-0.60157 -0.511719,-1.21875 -0.789063,-1.8125 -2.929687,-6.25782 -8.390625,-14.5 -13.90625,-20.9961 -5.835937,-6.8789 -13.507812,-14.36328 -21.0625,-11.17187 -7.441406,3.14062 -6.984375,12.16406 -6.5,21.71875 0.06641,1.34765 0.15625,3.10937 0.195313,4.76953 -3.109375,-1.3086 -6.96875,-3.16016 -9.710938,-4.47656 -13.550781,-6.5 -22.503906,-10.79688 -28.0625,-4.46875 -5.578125,6.35156 -0.21875,14.57031 7.890625,27.01562 1.613282,2.47266 3.878906,5.95313 5.535156,8.78516 -1.617187,0.19531 -3.347656,0.35156 -4.667968,0.47265 -9.300782,0.85157 -18.082032,1.65235 -20.234375,9.32032 -1.984375,7.09375 4.644531,12.7539 11.390625,17.35546 3.324218,2.26954 23.492926,8.64616 25.762457,5.31803 2.109375,-3.09375 -13.746832,-14.49381 -16.399176,-16.97818 0.292969,-0.0274 0.578125,-0.0547 0.84375,-0.0781 8.628906,-0.78906 16.082031,-1.46875 19.238281,-7.27734 3.394532,-6.24609 -1.234375,-13.34766 -8.898437,-25.10938 -0.398438,-0.60937 -0.835938,-1.27734 -1.292969,-1.98046 0.859375,0.40625 1.671875,0.79687 2.40625,1.14843 12.882812,6.1836 20.65625,9.91407 26.425781,5.7461 5.390625,-3.89844 5.007813,-11.50782 4.5625,-20.32032 -0.02344,-0.45312 -0.05078,-0.94921 -0.07422,-1.47656 4.464844,5.03516 9.964844,12.61328 12.980469,19.05078 0.472657,1.01563 0.914063,2.0586 1.332031,3.11328 -5.21875,3.79297 -10.003906,8.23829 -14.242187,13.29688 -6.695313,7.98437 -11.769531,17.08984 -15.066406,26.84375 -0.482605,-0.0986 -6.424335,-1.62979 -12.352704,-4.40138 -7.459394,-3.48737 -15.233135,-8.37938 -15.862139,-8.55568 -9.308593,-2.625 -18.675781,9.03515 -9.363281,11.66015 0.621386,0.17594 7.40607,4.91737 15.244755,8.64041 8.521187,4.04719 18.148522,7.10002 18.813838,7.24244 -0.785157,5.2539 -1.09375,10.61328 -0.890626,16.02343 0.867188,22.87891 10.570313,44.22266 28.0625,61.71485 24.214844,24.21094 52.601559,43.03515 84.371099,55.9375 30.66406,12.46094 63.08593,18.8789 96.37109,19.07812 0.53906,0 1.0625,0.004 1.60156,0.004 68.11719,-0.004 131.66016,-25.98438 179.06641,-73.26172 41.55469,-41.44531 67.875,-96.28516 74.11719,-154.41797 6.16015,-57.39453 -7.38282,-115.41406 -38.14063,-163.36719 z M 304.60156,71.296875 c -4.375,-3.445313 -11.35547,-10.703125 -16.02344,-16.480469 0.23438,0.05469 0.46094,0.105469 0.67188,0.152344 8.45312,1.910156 15.75391,3.5625 20.54687,-0.992188 5.15235,-4.894531 2.94141,-13.074218 -0.72265,-26.628906 -0.19141,-0.699218 -0.39844,-1.472656 -0.61719,-2.28125 0.69141,0.652344 1.34375,1.273438 1.93359,1.835938 10.34766,9.851562 16.59375,15.796875 23.36719,13.613281 6.32813,-2.042969 8.3125,-9.402344 10.60547,-17.925781 0.11719,-0.4375 0.24609,-0.917969 0.38672,-1.425782 2.69141,6.167969 5.58594,15.074219 6.46875,22.125 0.19141,1.511719 0.375,3.574219 0.41406,5.957032 -11.33593,2.347656 -21.94922,7.175781 -31.08203,14.320312 -4.1875,3.273438 -7.98047,6.960938 -11.34766,11.011719 -1.52343,-0.972656 -3.05859,-2.066406 -4.60156,-3.28125 z"
     id="path2"
     inkscape:connector-curvature="0"
     sodipodi:nodetypes="ccccccccccccccccccccccccccsccscccccccccccccccccccccccccccccccccccccccccccccccccsccsccccccccccccccccccccccccc"
     style="fill:#000000;fill-opacity:1" />
  <path
     style="opacity:1;fill:#ffff00;fill-opacity:1;stroke:none;stroke-width:1.44350278;stroke-opacity:1"
     d="M 321.19352,659.74452 C 247.34094,655.54077 175.12116,624.35145 121.8455,573.65276 107.0166,559.54113 101.16053,551.99967 94.109716,537.93455 86.594451,522.94294 83.94879,511.52802 83.906222,493.91075 c -0.06101,-25.24932 7.991532,-44.88746 25.805278,-62.93261 12.82578,-12.9924 26.33742,-19.97859 44.80244,-23.16508 16.04164,-2.76829 34.00178,-0.95818 52.9851,5.34011 15.78676,5.23772 23.74455,9.24978 43.47934,21.92085 37.7541,24.24068 65.57434,33.56596 97.44515,32.66338 l 13.51674,-0.38279 6.93483,28.03702 c 7.34378,29.69035 9.10096,33.16318 16.77983,33.16318 3.73043,0 10.60951,-5.81906 10.58779,-8.95628 -0.007,-1.0285 -2.93022,-13.7924 -6.49576,-28.36423 -6.97563,-28.50828 -7.30071,-30.52412 -4.92236,-30.52412 2.93501,0 22.24804,-10.3426 29.51644,-15.80676 l 7.2591,-5.45718 30.62825,29.3975 c 31.49229,30.22684 33.67902,31.73398 40.63889,28.00918 1.42677,-0.76358 3.41001,-3.35806 4.40721,-5.76549 1.51574,-3.65934 1.45241,-4.9276 -0.38618,-7.73364 -1.20958,-1.84607 -15.19115,-15.86271 -31.07013,-31.14809 l -28.87089,-27.7916 6.71987,-8.91765 c 3.69593,-4.90469 9.16971,-14.17276 12.16395,-20.59571 l 5.44407,-11.67808 28.30313,6.88034 c 29.69847,7.21954 33.35525,7.36809 36.50485,1.48304 2.31389,-4.32355 1.84103,-9.95875 -1.08085,-12.88063 -1.66969,-1.66969 -12.78774,-5.07784 -30.81564,-9.44633 l -28.20354,-6.83421 -0.0446,-14.01059 c -0.0813,-25.52512 -6.57797,-48.97746 -21.36348,-77.11989 -30.10113,-57.29383 -34.47619,-69.88247 -34.50554,-99.28477 -0.013,-13.30812 0.66814,-20.31691 2.59632,-26.70481 13.44429,-44.53982 53.78944,-68.835515 98.06335,-59.053349 12.91167,2.852789 30.9509,11.35018 42.45675,19.999289 4.80951,3.61537 15.86782,13.9831 24.57402,23.03939 36.0447,37.49412 65.25812,94.50603 76.09291,148.50037 5.47317,27.2751 7.03529,46.40396 6.09668,74.65696 -1.59523,48.01825 -11.47617,87.49853 -32.69518,130.637 -17.19221,34.95193 -37.65652,62.99434 -65.63183,89.93585 -63.98025,61.6159 -148.1509,91.97676 -240.42901,86.7242 z"
     id="path817"
     inkscape:connector-curvature="0"
     transform="matrix(0.75146575,0,0,0.75146575,-1.499325,0)" />
  <path
     style="opacity:1;fill:#ffff00;fill-opacity:1;stroke:none;stroke-width:1.44350278;stroke-opacity:1"
     d="m 400.64642,87.445848 c -6.38454,-6.099763 -11.60827,-11.584816 -11.60827,-12.18901 0,-0.604194 2.73505,-0.484011 6.07787,0.267072 12.36414,2.778037 21.38705,-1.546966 23.43234,-11.231954 0.53523,-2.534454 -0.0284,-8.733758 -1.28766,-14.163727 -1.23172,-5.311085 -2.2395,-10.344693 -2.2395,-11.185795 0,-0.841102 3.41028,1.377201 7.57839,4.929563 8.94986,7.627704 15.46975,11.213889 20.38748,11.213889 5.74658,0 12.07322,-6.483217 14.81524,-15.181888 1.34953,-4.281223 2.98534,-7.455468 3.63513,-7.053878 1.65471,1.022671 5.7693,15.688072 6.83655,24.367175 l 0.89169,7.25136 -11.15736,3.771409 c -14.04419,4.747213 -24.87997,11.241098 -36.58176,21.923442 l -9.17186,8.372817 z"
     id="path819"
     inkscape:connector-curvature="0"
     transform="matrix(0.75146575,0,0,0.75146575,-1.499325,0)" />
  <path
     style="opacity:1;fill:#ffff00;fill-opacity:1;stroke:none;stroke-width:0.25517765;stroke-opacity:1"
     d="m 64.4233,457.43657 c -8.491806,-2.62223 -14.595985,-5.43534 -27.004263,-12.44493 -6.844693,-3.86666 -6.802841,-3.4765 -0.442491,-4.12499 9.924438,-1.01188 15.21247,-2.85652 18.562852,-6.47533 4.409954,-4.76328 4.629674,-10.47826 0.722091,-18.78166 -1.360538,-2.89107 -4.434182,-8.07168 -8.774762,-14.78982 -1.628486,-2.52049 -2.924033,-4.61956 -2.878993,-4.6646 0.04504,-0.045 2.021006,0.8486 4.391036,1.98586 5.6487,2.71054 12.130122,5.57663 15.154197,6.70121 7.130754,2.65175 12.227624,3.00142 16.201059,1.11145 4.320487,-2.05504 6.942037,-6.02412 7.916675,-11.98599 0.40498,-2.47728 0.537613,-11.83891 0.22415,-15.82148 -0.107378,-1.36427 -0.07775,-2.00063 0.08539,-1.83399 0.844454,0.86256 4.39963,5.29119 6.247913,7.78292 2.708637,3.6516 6.554356,9.52139 8.442866,12.88647 1.34034,2.38832 3.75179,7.53339 3.75179,8.00483 0,0.11631 -1.57891,1.47526 -3.50869,3.01989 -15.304198,12.24972 -27.350594,28.93078 -34.146174,47.28337 -0.809807,2.18702 -1.206154,2.94903 -1.555928,2.99141 -0.25813,0.0313 -1.783052,-0.3488 -3.388716,-0.84462 z"
     id="path821"
     inkscape:connector-curvature="0"
     transform="matrix(0.75146575,0,0,0.75146575,-1.499325,0)" />
</svg>
